<?xml version="1.0" standalone="no"?><!DOCTYPE svg PUBLIC "-//W3C//DTD SVG 1.1//EN" "http://www.w3.org/Graphics/SVG/1.1/DTD/svg11.dtd"><svg t="1574405384787" class="icon" viewBox="0 0 1024 1024" version="1.1" xmlns="http://www.w3.org/2000/svg" p-id="2316" width="400" height="400" xmlns:xlink="http://www.w3.org/1999/xlink"><defs><style type="text/css"></style></defs><path d="M334.404651 112.325572l0.787514 719.889369h292.485762v-719.889369H334.404651z m266.685632 693.222251H360.27703v-26.667119h240.813253v26.667119z m0-53.247538H360.27703v-26.667118h240.813253v26.667118z m0-53.341461H360.27703V672.205007h240.813253v26.753817z m0-53.334237H360.27703V618.957469h240.813253v26.667118z m0-53.341461H360.27703v-26.667118h240.813253v26.667118z m0-53.341461H360.27703v-26.667119h240.813253v26.667119z m0-53.334237H360.27703v-26.667118h240.813253v26.667118z m0-53.334236H360.27703V405.606073h240.813253v26.667119z m0-53.254763H360.27703v-26.667118h240.813253v26.667118z m0-53.42816H360.27703v-26.667118h240.813253v26.667118z m0-53.247538H360.27703v-26.667118h240.813253v26.667118z m0-53.334236H360.27703v-26.667118h240.813253v26.667118z m0-53.341461H360.27703v-26.667119h240.813253v26.667119z m0 0" fill="#333333" p-id="2317"></path><path d="M841.029323 485.607428v346.614738h-213.351396V485.607428h213.351396m26.667118-26.674343H601.090283v399.948974h266.606158V458.933085z m0 0" fill="#333333" p-id="2318"></path><path d="M174.474191 352.351311v506.537973h186.597578v-506.537973H174.474191z m53.341461 479.86363h-26.667118v-53.341461h26.667118v53.341461z m0-79.914656h-26.667118v-53.341461h26.667118v53.341461z m0-80.095278h-26.667118v-53.334237h26.667118v53.334237z m0-79.921881h-26.667118v-53.341461h26.667118v53.341461z m0-80.00858h-26.667118v-53.341461h26.667118v53.341461z m0-80.001354h-26.667118V379.018429h26.667118v53.254763z m53.341461 399.941749h-26.667118v-53.341461h26.667118v53.341461z m0-79.914656h-26.667118v-53.341461h26.667118v53.341461z m0-80.095278h-26.667118v-53.334237h26.667118v53.334237z m0-79.921881h-26.667118v-53.341461h26.667118v53.341461z m0-80.00858h-26.667118v-53.341461h26.667118v53.341461z m0-80.001354h-26.667118V379.018429h26.667118v53.254763z m53.247538 399.941749h-26.667118v-53.341461h26.667118v53.341461z m0-79.914656h-26.667118v-53.341461h26.667118v53.341461z m0-80.095278h-26.667118v-53.334237h26.667118v53.334237z m0-79.921881h-26.667118v-53.341461h26.667118v53.341461z m0-80.00858h-26.667118v-53.341461h26.667118v53.341461z m0-80.001354h-26.667118V379.018429h26.667118v53.254763z m453.283211 80.001354h26.667118v53.341462h-26.667118v-53.341462z m-53.341462 0h26.667118v53.341462h-26.667118v-53.341462z m-53.334236 0h26.667118v53.341462h-26.667118v-53.341462z m80.008579 80.00858h26.667119v53.341461h-26.667119v-53.341461z m-53.341461 0h26.667118v53.341461H707.679282v-53.341461z m-53.341461 0h26.667118v53.341461h-26.667118v-53.341461z m133.350041 79.921881h26.667118v53.341461h-26.667118V672.205007z m-53.341462 0h26.667118v53.341461h-26.667118V672.205007z m-53.334236 0h26.667118v53.341461h-26.667118V672.205007z m80.008579 80.095278h26.667119v53.334236h-26.667119v-53.334236z m-53.341461 0h26.667118v53.334236H707.679282v-53.334236z m-53.341461 0h26.667118v53.334236h-26.667118v-53.334236z m0 0" fill="#333333" p-id="2319"></path><path d="M601.090283 832.214941v26.667118h293.273276v26.667118H147.807073v-26.667118h213.264696v-26.667118H121.139954v80.008579H921.030678v-80.008579H601.090283z m0 0" fill="#333333" p-id="2320"></path></svg>